inDegrees=yes
name=ik_S54_A08_T02
DataType=double
version=3
OpenSimVersion=4.3-2021-08-27-4bc7ad9
endheader
time	pelvis_tilt	pelvis_list	pelvis_rotation	pelvis_tx	pelvis_ty	pelvis_tz	hip_flexion_r	hip_adduction_r	hip_rotation_r	knee_angle_r	knee_angle_r_beta	ankle_angle_r	subtalar_angle_r	mtp_angle_r	hip_flexion_l	hip_adduction_l	hip_rotation_l	knee_angle_l	knee_angle_l_beta	ankle_angle_l	subtalar_angle_l	mtp_angle_l	lumbar_extension	lumbar_bending	lumbar_rotation	arm_flex_r	arm_add_r	arm_rot_r	elbow_flex_r	pro_sup_r	wrist_flex_r	wrist_dev_r	arm_flex_l	arm_add_l	arm_rot_l	elbow_flex_l	pro_sup_l	wrist_flex_l	wrist_dev_l
13.3799999999998	-10.71520466377754	-3.5278474394576	37.16953900280996	0	0.9399999999999999	0	44.41190731927357	-10.01263523499539	-10.04626337992967	55.30492172734142	0.9652529766998573	0	0	0	44.41190731927357	-10.01263523499539	-10.04626337992967	55.30492172734142	0.9652529766998573	0	0	0	2.610475452562209	2.033666662089366	-16.60026673552046	30.79063558287826	-2.622537965009858	-1.305144181392508	48.59435149918937	135.681591736523	0	0	77.72145910768211	-49.84681760384608	13.26753644700327	109.9204580864133	119.5512579605968	0	0
13.3999999999998	-10.59870796861517	-3.4050775636574	36.9936315757375	0	0.9399999999999999	0	44.4124709959128	-10.01259293684631	-10.04616401638188	55.30472633694135	0.9652495664940494	0	0	0	44.4124709959128	-10.01259293684631	-10.04616401638188	55.30472633694135	0.9652495664940494	0	0	0	2.769266727237363	2.059808228911638	-16.62084327642259	30.83953439501104	-2.601773040789157	-1.328067572487388	48.14764020034131	135.9166040528654	0	0	77.12217886288188	-49.8744247317001	12.81588329133806	111.3769440279889	121.633089845135	0	0
13.4199999999998	-10.35470546241436	-3.160504917829233	36.85845065175535	0	0.9399999999999999	0	44.42104364780168	-10.01216540969984	-10.04499127642844	55.30079216380043	0.9651809022193969	0	0	0	44.42104364780168	-10.01216540969984	-10.04499127642844	55.30079216380043	0.9651809022193969	0	0	0	2.958049737957293	2.115256046981189	-16.72853326070109	30.71789434283232	-2.636447942099376	-1.252781998003133	47.68921536806292	136.1427169359259	0	0	81.91759006227346	-51.51877281894826	16.24683689311945	108.1379949760795	118.5178746295557	0	0
13.4399999999998	-10.21830526904152	-3.014987471524971	36.76776914997515	0	0.9399999999999999	0	44.42247389525483	-10.01208734769836	-10.04478493322367	55.30017079486579	0.9651700572856177	0	0	0	44.42247389525483	-10.01208734769836	-10.04478493322367	55.30017079486579	0.9651700572856177	0	0	0	3.12814832767072	2.149646807776934	-16.78124586687114	31.04241488575915	-2.59098914967796	-1.400472100471743	46.81359865608396	136.4642598224678	0	0	84.04592685153996	-52.03240187263044	17.79670729965513	108.0729717214222	119.4268429908752	0	0
13.4599999999998	-10.09261493061182	-2.876622115618627	36.73355181825703	0	0.9399999999999999	0	44.42292941682325	-10.01205407891103	-10.04470583210053	55.30001231089392	0.965167291218497	0	0	0	44.42292941682325	-10.01205407891103	-10.04470583210053	55.30001231089392	0.965167291218497	0	0	0	3.302343004695123	2.186708990893496	-16.8963763280127	30.71210236904408	-2.677269617937361	-1.187224761887171	46.86953559435345	136.462121442695	0	0	86.44916506331417	-52.67925072274939	19.71904049052769	106.3306612457869	117.8623047442676	0	0
13.4799999999998	-9.95159425099749	-2.743266675657117	36.6562578808458	0	0.9399999999999999	0	44.42474351789112	-10.01195235793156	-10.04443951457538	55.29924182877092	0.965153843768623	0	0	0	44.42474351789112	-10.01195235793156	-10.04443951457538	55.29924182877092	0.965153843768623	0	0	0	3.463863034043428	2.209837958907116	-16.94462894480714	30.69698101136856	-2.683057209019968	-1.146140931330053	46.45533501106202	136.6570082841893	0	0	88.50605978688132	-52.96173118155846	21.16821082899577	107.642722801915	120.9288964189118	0	0
13.4999999999998	-9.803498107704048	-2.575896887796561	36.62871589252006	0	0.9399999999999999	0	44.42835161068717	-10.01176996542087	-10.04394145310826	55.29761956021191	0.9651255298409165	0	0	0	44.42835161068717	-10.01176996542087	-10.04394145310826	55.29761956021191	0.9651255298409165	0	0	0	3.61728997221094	2.259562087869233	-17.00052186521863	30.68303322802065	-2.753512982594796	-1.120089807403682	46.04648949640453	136.8757052221422	0	0	92.9185565714551	-53.44891885804159	24.68150912053803	107.5270490544822	122.8430686280023	0	0
13.5199999999998	-9.674348786482961	-2.413499550834173	36.60033714151481	0	0.9399999999999999	0	44.42882449742596	-10.01173591018042	-10.04385992718868	55.29745513616213	0.9651226600998785	0	0	0	44.42882449742596	-10.01173591018042	-10.04385992718868	55.29745513616213	0.9651226600998785	0	0	0	3.810450977807042	2.306071470722092	-17.09172040087633	30.65472017162815	-2.800070113704952	-1.00436022780207	45.63930070343328	137.0941191987599	0	0	94.67776041285614	-53.66028912338614	26.23187515523432	107.4148549614566	123.897497397591	0	0
13.5399999999998	-9.610888722140242	-2.344465002455316	36.61767098633929	0	0.9399999999999999	0	44.42931162780046	-10.01170091514616	-10.04377605241747	55.29728566111933	0.9651197022023815	0	0	0	44.42931162780046	-10.01170091514616	-10.04377605241747	55.29728566111933	0.9651197022023815	0	0	0	3.896728818512232	2.318814872602676	-17.13929999529703	30.78377769987703	-2.776613031249469	-1.076230958481919	45.2712512814166	137.2860058792756	0	0	96.77817169356696	-53.68562072899901	27.96215783531965	107.2219136483969	124.9221368087075	0	0
13.5599999999998	-9.485516625235773	-2.185632182453917	36.60560753265754	0	0.9399999999999999	0	44.42971737503692	-10.01167182226169	-10.04370625710691	55.29714445972812	0.9651172377731966	0	0	0	44.42971737503692	-10.01167182226169	-10.04370625710691	55.29714445972812	0.9651172377731966	0	0	0	4.086401810489783	2.366522788978808	-17.19567037890243	30.71990175675242	-2.840396483116146	-1.019620530597546	44.94504315743539	137.3991035132706	0	0	98.38360440866457	-53.73713991468281	29.29619966560659	107.084484172647	125.9040697516067	0	0
13.5799999999998	-9.362135227533276	-2.033464044878616	36.55380160920446	0	0.9399999999999999	0	44.43024986052019	-10.01163376496388	-10.04361481877084	55.29695896378158	0.9651140002581804	0	0	0	44.43024986052019	-10.01163376496388	-10.04361481877084	55.29695896378158	0.9651140002581804	0	0	0	4.266145500560432	2.411846767163827	-17.22475508098244	30.69763217392258	-2.872993772333594	-0.9475456100605028	44.53499169447232	137.6159659977751	0	0	97.69359376915131	-53.73938854150551	28.81262984998261	108.2457696723857	127.6741119306238	0	0
13.5999999999998	-9.226560454761948	-1.866623214684512	36.54386784732852	0	0.9399999999999999	0	44.43074201979891	-10.01159859329002	-10.04353028639858	55.29678774139908	0.9651110118638526	0	0	0	44.43074201979891	-10.01159859329002	-10.04353028639858	55.29678774139908	0.9651110118638526	0	0	0	4.465579074044705	2.460672291500145	-17.29134599177198	30.64010348901635	-2.937494520306122	-0.8245559544871438	44.15848823880425	137.7643797504024	0	0	99.10864257051234	-53.85165493747066	29.98565159819974	108.1958574321335	128.4925722277625	0	0
13.6199999999998	-9.025821594186462	-1.638037489901871	36.54070997569259	0	0.9399999999999999	0	44.43116853198581	-10.01156818344429	-10.04345711622078	55.29663928648691	0.9651084208368444	0	0	0	44.43116853198581	-10.01156818344429	-10.04345711622078	55.29663928648691	0.9651084208368444	0	0	0	4.756021837527475	2.51943355922984	-17.34437471842617	30.39576763750015	-3.086944654031809	-0.686182692555353	43.78838218666549	137.9219173249966	0	0	100.2642597502294	-53.93507462344144	31.01131048415699	108.0944211635975	129.23830528892	0	0
13.6399999999998	-8.889406605539923	-1.506929068748016	36.5373164740008	0	0.9399999999999999	0	44.43162030307786	-10.01153603219189	-10.04337968302903	55.29648201101045	0.9651056758619477	0	0	0	44.43162030307786	-10.01153603219189	-10.04337968302903	55.29648201101045	0.9651056758619477	0	0	0	4.936753916517988	2.539401144095823	-17.37250759439114	30.35184471562545	-3.112634607581886	-0.674283093070429	43.3874776568002	138.1328605186305	0	0	101.6691015959844	-53.95694643982486	32.1009587335834	108.1175794668238	129.6468322583652	0	0
13.6599999999998	-8.747458268040996	-1.363596014179371	36.53685314386366	0	0.9399999999999999	0	44.43213871656363	-10.01149923066274	-10.04329094055543	55.29630145226777	0.9651025245173946	0	0	0	44.43213871656363	-10.01149923066274	-10.04329094055543	55.29630145226777	0.9651025245173946	0	0	0	5.128208325412623	2.568541756532897	-17.37761839770091	30.24964301466509	-3.20721038632416	-0.7003161114945194	43.06284941277119	138.3389635874792	0	0	102.9455773452902	-54.06150531947091	33.03616341739818	106.9905527853108	128.633040813084	0	0
13.6799999999998	-8.606649906872567	-1.230314010824924	36.54716179909263	0	0.9399999999999999	0	44.43253473682694	-10.01147117844466	-10.043223227681	55.29616342798393	0.9651001155391939	0	0	0	44.43253473682694	-10.01147117844466	-10.043223227681	55.29616342798393	0.9651001155391939	0	0	0	5.314056429259051	2.590465911946549	-17.38661793533087	29.90091625209417	-3.361747617658668	-0.6408736638409503	43.08418598179242	138.3281326463478	0	0	103.8722299804823	-54.10045241454201	33.67942325861424	107.1974800325181	128.6269037248381	0	0
13.6999999999998	-8.479270394604859	-1.093189492138907	36.5419247269812	0	0.9399999999999999	0	44.43313529917331	-10.01142868421665	-10.04312057343924	55.29595433041209	0.9650964660981073	0	0	0	44.43313529917331	-10.01142868421665	-10.04312057343924	55.29595433041209	0.9650964660981073	0	0	0	5.488548810448672	2.624965271009522	-17.3550299146071	30.1018520220639	-3.388769723397978	-0.8358284657873242	42.43794120107243	138.6365641470794	0	0	104.9652586274531	-54.123340693442	34.38177527013052	106.1867727525322	127.7355901359223	0	0
13.7199999999998	-8.363668561273597	-0.9595944218772081	36.543121532401	0	0.9399999999999999	0	44.43363137776383	-10.01139368414482	-10.04303591133448	55.29578143127524	0.9650934484388954	0	0	0	44.43363137776383	-10.01139368414482	-10.04303591133448	55.29578143127524	0.9650934484388954	0	0	0	5.653294561880855	2.660846949455421	-17.3411999527814	30.04874872228389	-3.444858758886724	-0.8595618381863555	41.97599229858361	138.9852097994746	0	0	107.0750210441126	-53.95718118593184	35.72311685574749	106.5467615551183	127.6941003391194	0	0
